# xmcd
#
# Track frame offsets:
#	150
#	19568
#	36961
#	54027
#	75604
#	96450
#	114753
#	138821
#	160881
#	181285
#	194501
#	213812
#
# Disc length: 2962 seconds
#
# Revision: 0
# Processed by: cddbd v1.5.2PL0 Copyright (c) Steve Scherf et al.
# Submitted via: EZCDAudioConverter 7.1.6.1
#
DISCID=8f0b900c
DTITLE=Shemekia Copeland - America's Child
DYEAR=2018
DGENRE=Blues
TTITLE0=Ain't Got Time For Hate
TTITLE1=Americans
TTITLE2=Would You Take My Blood?
TTITLE3=Great Rain
TTITLE4=Smoked Ham And Peaches
TTITLE5=The Wrong Idea
TTITLE6=Promised Myself
TTITLE7=In The Blood Of The Blues
TTITLE8=Such A Pretty Flame
TTITLE9=One I Love
TTITLE10=I'm Not Like Everybody Else
TTITLE11=Go To Sleep Little Baby
EXTD=
EXTT0=
EXTT1=
EXTT2=
EXTT3=
EXTT4=
EXTT5=
EXTT6=
EXTT7=
EXTT8=
EXTT9=
EXTT10=
EXTT11=
PLAYORDER=
